<mxfile host="Electron" modified="2023-05-17T17:12:35.094Z" agent="Mozilla/5.0 (Windows NT 10.0; Win64; x64) AppleWebKit/537.36 (KHTML, like Gecko) draw.io/21.2.8 Chrome/112.0.5615.165 Electron/24.2.0 Safari/537.36" etag="FM1FLF916pcM1iTjWaYK" version="21.2.8" type="device">
  <diagram name="Pagina-1" id="QL7AN_bCxh3xibXl6ufO">
    <mxGraphModel dx="1738" dy="1602" grid="1" gridSize="10" guides="1" tooltips="1" connect="1" arrows="1" fold="1" page="1" pageScale="1" pageWidth="827" pageHeight="1169" math="0" shadow="0">
      <root>
        <mxCell id="0" />
        <mxCell id="1" parent="0" />
        <mxCell id="T-uDaYiKx6lu9DH5wLxZ-1" value="" style="endArrow=none;html=1;rounded=0;align=center;verticalAlign=top;endFill=0;labelBackgroundColor=none;entryX=0.5;entryY=0;entryDx=0;entryDy=0;exitX=0.493;exitY=0.962;exitDx=0;exitDy=0;exitPerimeter=0;fontColor=#0000FF;strokeColor=#0000FF;" parent="1" source="T-uDaYiKx6lu9DH5wLxZ-8" target="T-uDaYiKx6lu9DH5wLxZ-9" edge="1">
          <mxGeometry relative="1" as="geometry">
            <mxPoint x="1200" y="-380" as="sourcePoint" />
            <mxPoint x="1400" y="-380" as="targetPoint" />
          </mxGeometry>
        </mxCell>
        <mxCell id="T-uDaYiKx6lu9DH5wLxZ-2" value="0..n" style="resizable=0;html=1;align=left;verticalAlign=top;labelBackgroundColor=none;fontColor=#0000FF;strokeColor=#0000FF;" parent="T-uDaYiKx6lu9DH5wLxZ-1" connectable="0" vertex="1">
          <mxGeometry x="-1" relative="1" as="geometry">
            <mxPoint x="-29" as="offset" />
          </mxGeometry>
        </mxCell>
        <mxCell id="T-uDaYiKx6lu9DH5wLxZ-3" value="fa riferimento a&amp;nbsp;&lt;span style=&quot;font-family: arial, sans-serif; font-size: 16px; text-align: left;&quot;&gt;▼&lt;/span&gt;" style="resizable=0;html=1;align=right;verticalAlign=bottom;labelBackgroundColor=none;fontColor=#0000FF;" parent="T-uDaYiKx6lu9DH5wLxZ-1" connectable="0" vertex="1">
          <mxGeometry x="1" relative="1" as="geometry">
            <mxPoint x="110" y="-30" as="offset" />
          </mxGeometry>
        </mxCell>
        <mxCell id="T-uDaYiKx6lu9DH5wLxZ-4" value="0..1" style="resizable=0;html=1;align=right;verticalAlign=top;labelBackgroundColor=none;" parent="T-uDaYiKx6lu9DH5wLxZ-1" connectable="0" vertex="1">
          <mxGeometry x="1" relative="1" as="geometry" />
        </mxCell>
        <mxCell id="T-uDaYiKx6lu9DH5wLxZ-5" value="Sezione" style="swimlane;fontStyle=0;childLayout=stackLayout;horizontal=1;startSize=26;horizontalStack=0;resizeParent=1;resizeParentMax=0;resizeLast=0;collapsible=1;marginBottom=0;labelBackgroundColor=none;fontColor=#0000FF;strokeColor=#0000FF;" parent="1" vertex="1">
          <mxGeometry x="1330" y="-590" width="140" height="52" as="geometry" />
        </mxCell>
        <mxCell id="T-uDaYiKx6lu9DH5wLxZ-6" value="nome: testo" style="text;strokeColor=#0000FF;fillColor=none;align=left;verticalAlign=top;spacingLeft=4;spacingRight=4;overflow=hidden;rotatable=0;points=[[0,0.5],[1,0.5]];portConstraint=eastwest;labelBackgroundColor=none;fontColor=#0000FF;" parent="T-uDaYiKx6lu9DH5wLxZ-5" vertex="1">
          <mxGeometry y="26" width="140" height="26" as="geometry" />
        </mxCell>
        <mxCell id="T-uDaYiKx6lu9DH5wLxZ-7" value="Voce" style="swimlane;fontStyle=0;childLayout=stackLayout;horizontal=1;startSize=26;horizontalStack=0;resizeParent=1;resizeParentMax=0;resizeLast=0;collapsible=1;marginBottom=0;labelBackgroundColor=none;fontColor=#0000FF;strokeColor=#0000FF;" parent="1" vertex="1">
          <mxGeometry x="1330" y="-450" width="140" height="52" as="geometry" />
        </mxCell>
        <mxCell id="T-uDaYiKx6lu9DH5wLxZ-8" value="descrizione: testo" style="text;strokeColor=#0000FF;fillColor=none;align=left;verticalAlign=top;spacingLeft=4;spacingRight=4;overflow=hidden;rotatable=0;points=[[0,0.5],[1,0.5]];portConstraint=eastwest;labelBackgroundColor=none;fontColor=#0000FF;" parent="T-uDaYiKx6lu9DH5wLxZ-7" vertex="1">
          <mxGeometry y="26" width="140" height="26" as="geometry" />
        </mxCell>
        <mxCell id="v4zvz2262ah-m5e5Bur2-3" style="edgeStyle=orthogonalEdgeStyle;rounded=0;orthogonalLoop=1;jettySize=auto;html=1;exitX=0.561;exitY=1.054;exitDx=0;exitDy=0;endArrow=block;endFill=0;entryX=0.5;entryY=0;entryDx=0;entryDy=0;exitPerimeter=0;" parent="1" source="T-uDaYiKx6lu9DH5wLxZ-10" target="v4zvz2262ah-m5e5Bur2-5" edge="1">
          <mxGeometry relative="1" as="geometry">
            <mxPoint x="1600" y="-160" as="targetPoint" />
            <Array as="points">
              <mxPoint x="1408" y="-200" />
              <mxPoint x="1620" y="-200" />
            </Array>
          </mxGeometry>
        </mxCell>
        <mxCell id="T-uDaYiKx6lu9DH5wLxZ-9" value="Ricetta" style="swimlane;fontStyle=0;childLayout=stackLayout;horizontal=1;startSize=26;horizontalStack=0;resizeParent=1;resizeParentMax=0;resizeLast=0;collapsible=1;marginBottom=0;labelBackgroundColor=none;" parent="1" vertex="1">
          <mxGeometry x="1330" y="-312" width="140" height="52" as="geometry" />
        </mxCell>
        <mxCell id="T-uDaYiKx6lu9DH5wLxZ-10" value="descrizione: testo" style="text;strokeColor=none;fillColor=none;align=left;verticalAlign=top;spacingLeft=4;spacingRight=4;overflow=hidden;rotatable=0;points=[[0,0.5],[1,0.5]];portConstraint=eastwest;labelBackgroundColor=none;fontColor=#000000;" parent="T-uDaYiKx6lu9DH5wLxZ-9" vertex="1">
          <mxGeometry y="26" width="140" height="26" as="geometry" />
        </mxCell>
        <mxCell id="T-uDaYiKx6lu9DH5wLxZ-13" value="Menù" style="swimlane;fontStyle=0;childLayout=stackLayout;horizontal=1;startSize=26;horizontalStack=0;resizeParent=1;resizeParentMax=0;resizeLast=0;collapsible=1;marginBottom=0;labelBackgroundColor=none;fontColor=#0000FF;strokeColor=#0000FF;" parent="1" vertex="1">
          <mxGeometry x="1000" y="-590" width="140" height="180" as="geometry" />
        </mxCell>
        <mxCell id="T-uDaYiKx6lu9DH5wLxZ-14" value="titolo: testo&#xa;pubblicato: sì/no&#xa;richiede cuoco: sì/no&#xa;piatti caldi: sì/no&#xa;richiede cucina: sì/no&#xa;buffet: sì/no&#xa;finger food: sì/no" style="text;strokeColor=#0000FF;fillColor=none;align=left;verticalAlign=top;spacingLeft=4;spacingRight=4;overflow=hidden;rotatable=0;points=[[0,0.5],[1,0.5]];portConstraint=eastwest;labelBackgroundColor=none;fontColor=#0000FF;" parent="T-uDaYiKx6lu9DH5wLxZ-13" vertex="1">
          <mxGeometry y="26" width="140" height="154" as="geometry" />
        </mxCell>
        <mxCell id="T-uDaYiKx6lu9DH5wLxZ-15" value="Evento" style="swimlane;fontStyle=0;childLayout=stackLayout;horizontal=1;startSize=26;horizontalStack=0;resizeParent=1;resizeParentMax=0;resizeLast=0;collapsible=1;marginBottom=0;labelBackgroundColor=none;" parent="1" vertex="1">
          <mxGeometry x="1005" y="-361" width="150" height="130" as="geometry">
            <mxRectangle x="1000" y="-349" width="140" height="30" as="alternateBounds" />
          </mxGeometry>
        </mxCell>
        <object label="nome : testo&#xa;dataInizio: data&#xa;luogo: testo&#xa;durata: testo&#xa;numeroPartecipanti: testo&#xa;cliente: testo&#xa;stato: testo" id="T-uDaYiKx6lu9DH5wLxZ-16">
          <mxCell style="text;strokeColor=none;fillColor=none;align=left;verticalAlign=top;spacingLeft=4;spacingRight=4;overflow=hidden;rotatable=0;points=[[0,0.5],[1,0.5]];portConstraint=eastwest;labelBackgroundColor=none;fontColor=#000000;" parent="T-uDaYiKx6lu9DH5wLxZ-15" vertex="1">
            <mxGeometry y="26" width="150" height="104" as="geometry" />
          </mxCell>
        </object>
        <mxCell id="T-uDaYiKx6lu9DH5wLxZ-17" value="Chef" style="swimlane;fontStyle=0;childLayout=stackLayout;horizontal=1;startSize=26;horizontalStack=0;resizeParent=1;resizeParentMax=0;resizeLast=0;collapsible=1;marginBottom=0;labelBackgroundColor=none;" parent="1" vertex="1">
          <mxGeometry x="1205" y="-214" width="140" height="52" as="geometry" />
        </mxCell>
        <mxCell id="T-uDaYiKx6lu9DH5wLxZ-18" value="informazioni" style="text;strokeColor=none;fillColor=none;align=left;verticalAlign=top;spacingLeft=4;spacingRight=4;overflow=hidden;rotatable=0;points=[[0,0.5],[1,0.5]];portConstraint=eastwest;labelBackgroundColor=none;fontColor=#000000;" parent="T-uDaYiKx6lu9DH5wLxZ-17" vertex="1">
          <mxGeometry y="26" width="140" height="26" as="geometry" />
        </mxCell>
        <mxCell id="T-uDaYiKx6lu9DH5wLxZ-19" value="" style="endArrow=diamondThin;html=1;rounded=0;align=center;verticalAlign=top;endFill=1;labelBackgroundColor=none;endSize=18;fontColor=#0000FF;strokeColor=#0000FF;" parent="1" target="T-uDaYiKx6lu9DH5wLxZ-6" edge="1">
          <mxGeometry relative="1" as="geometry">
            <mxPoint x="1400" y="-450" as="sourcePoint" />
            <mxPoint x="1374" y="-240" as="targetPoint" />
          </mxGeometry>
        </mxCell>
        <mxCell id="T-uDaYiKx6lu9DH5wLxZ-20" value="1" style="resizable=0;html=1;align=left;verticalAlign=top;labelBackgroundColor=none;fontColor=#0000FF;" parent="T-uDaYiKx6lu9DH5wLxZ-19" connectable="0" vertex="1">
          <mxGeometry x="-1" relative="1" as="geometry">
            <mxPoint x="-20" y="110" as="offset" />
          </mxGeometry>
        </mxCell>
        <mxCell id="T-uDaYiKx6lu9DH5wLxZ-21" value="appartiene&amp;nbsp;&amp;nbsp;&lt;span style=&quot;font-family: arial, sans-serif; font-size: 16px; text-align: left;&quot;&gt;▲&lt;/span&gt;" style="resizable=0;html=1;align=right;verticalAlign=bottom;labelBackgroundColor=none;fontColor=#0000FF;strokeColor=#0000FF;" parent="T-uDaYiKx6lu9DH5wLxZ-19" connectable="0" vertex="1">
          <mxGeometry x="1" relative="1" as="geometry">
            <mxPoint x="100" y="58" as="offset" />
          </mxGeometry>
        </mxCell>
        <mxCell id="T-uDaYiKx6lu9DH5wLxZ-22" value="0..1" style="resizable=0;html=1;align=right;verticalAlign=top;labelBackgroundColor=none;fontColor=#0000FF;strokeColor=#0000FF;" parent="T-uDaYiKx6lu9DH5wLxZ-19" connectable="0" vertex="1">
          <mxGeometry x="1" relative="1" as="geometry">
            <mxPoint x="-10" as="offset" />
          </mxGeometry>
        </mxCell>
        <mxCell id="T-uDaYiKx6lu9DH5wLxZ-23" value="0..n" style="resizable=0;html=1;align=right;verticalAlign=top;labelBackgroundColor=none;fontColor=#0000FF;strokeColor=#0000FF;" parent="1" connectable="0" vertex="1">
          <mxGeometry x="1390" y="-480" as="geometry" />
        </mxCell>
        <mxCell id="T-uDaYiKx6lu9DH5wLxZ-28" value="" style="endArrow=diamondThin;html=1;rounded=0;align=center;verticalAlign=top;endFill=1;labelBackgroundColor=none;endSize=18;exitX=0.5;exitY=0;exitDx=0;exitDy=0;entryX=0.593;entryY=0.007;entryDx=0;entryDy=0;entryPerimeter=0;fontColor=#0000FF;strokeColor=#0000FF;" parent="1" source="T-uDaYiKx6lu9DH5wLxZ-5" target="T-uDaYiKx6lu9DH5wLxZ-13" edge="1">
          <mxGeometry relative="1" as="geometry">
            <mxPoint x="1220" y="-538" as="sourcePoint" />
            <mxPoint x="1220" y="-626" as="targetPoint" />
            <Array as="points">
              <mxPoint x="1400" y="-630" />
              <mxPoint x="1083" y="-630" />
            </Array>
          </mxGeometry>
        </mxCell>
        <mxCell id="T-uDaYiKx6lu9DH5wLxZ-29" value="0..n" style="resizable=0;html=1;align=left;verticalAlign=top;labelBackgroundColor=none;fontColor=#0000FF;strokeColor=#0000FF;" parent="T-uDaYiKx6lu9DH5wLxZ-28" connectable="0" vertex="1">
          <mxGeometry x="-1" relative="1" as="geometry">
            <mxPoint x="10" y="-30" as="offset" />
          </mxGeometry>
        </mxCell>
        <mxCell id="T-uDaYiKx6lu9DH5wLxZ-30" value="contiene&amp;nbsp;&lt;span style=&quot;font-family: arial, sans-serif; font-size: 16px; text-align: left;&quot;&gt;▶&lt;/span&gt;" style="resizable=0;html=1;align=right;verticalAlign=bottom;labelBackgroundColor=none;fontColor=#0000FF;strokeColor=#0000FF;" parent="T-uDaYiKx6lu9DH5wLxZ-28" connectable="0" vertex="1">
          <mxGeometry x="1" relative="1" as="geometry">
            <mxPoint x="217" y="-41" as="offset" />
          </mxGeometry>
        </mxCell>
        <mxCell id="T-uDaYiKx6lu9DH5wLxZ-31" value="1" style="resizable=0;html=1;align=right;verticalAlign=top;labelBackgroundColor=none;fontColor=#0000FF;strokeColor=#0000FF;" parent="T-uDaYiKx6lu9DH5wLxZ-28" connectable="0" vertex="1">
          <mxGeometry x="1" relative="1" as="geometry">
            <mxPoint x="-10" y="-31" as="offset" />
          </mxGeometry>
        </mxCell>
        <mxCell id="T-uDaYiKx6lu9DH5wLxZ-32" value="" style="endArrow=diamondThin;html=1;rounded=0;align=center;verticalAlign=top;endFill=1;labelBackgroundColor=none;endSize=18;exitX=-0.021;exitY=0.385;exitDx=0;exitDy=0;exitPerimeter=0;entryX=1;entryY=0.5;entryDx=0;entryDy=0;fontColor=#0000FF;strokeColor=#0000FF;" parent="1" source="T-uDaYiKx6lu9DH5wLxZ-7" target="T-uDaYiKx6lu9DH5wLxZ-14" edge="1">
          <mxGeometry relative="1" as="geometry">
            <mxPoint x="1210" y="-450" as="sourcePoint" />
            <mxPoint x="1210" y="-538" as="targetPoint" />
            <Array as="points">
              <mxPoint x="1230" y="-430" />
              <mxPoint x="1230" y="-487" />
            </Array>
          </mxGeometry>
        </mxCell>
        <mxCell id="T-uDaYiKx6lu9DH5wLxZ-33" value="0..n" style="resizable=0;html=1;align=left;verticalAlign=top;labelBackgroundColor=none;fontColor=#0000FF;strokeColor=#0000FF;" parent="T-uDaYiKx6lu9DH5wLxZ-32" connectable="0" vertex="1">
          <mxGeometry x="-1" relative="1" as="geometry">
            <mxPoint x="-27" y="-29" as="offset" />
          </mxGeometry>
        </mxCell>
        <mxCell id="T-uDaYiKx6lu9DH5wLxZ-34" value="&lt;font style=&quot;font-size: 15px&quot;&gt;◀︎&lt;/font&gt;&amp;nbsp;appartiene&amp;nbsp;" style="resizable=0;html=1;align=right;verticalAlign=bottom;labelBackgroundColor=none;fontColor=#0000FF;strokeColor=#0000FF;" parent="T-uDaYiKx6lu9DH5wLxZ-32" connectable="0" vertex="1">
          <mxGeometry x="1" relative="1" as="geometry">
            <mxPoint x="139" y="-2" as="offset" />
          </mxGeometry>
        </mxCell>
        <mxCell id="T-uDaYiKx6lu9DH5wLxZ-35" value="0..1" style="resizable=0;html=1;align=right;verticalAlign=top;labelBackgroundColor=none;fontColor=#0000FF;strokeColor=#0000FF;" parent="T-uDaYiKx6lu9DH5wLxZ-32" connectable="0" vertex="1">
          <mxGeometry x="1" relative="1" as="geometry">
            <mxPoint x="29" y="-29" as="offset" />
          </mxGeometry>
        </mxCell>
        <mxCell id="T-uDaYiKx6lu9DH5wLxZ-36" value="" style="endArrow=none;html=1;rounded=0;align=center;verticalAlign=top;endFill=0;labelBackgroundColor=none;exitX=0;exitY=0.5;exitDx=0;exitDy=0;fontColor=#0000FF;strokeColor=#0000FF;entryX=0.5;entryY=0;entryDx=0;entryDy=0;" parent="1" source="T-uDaYiKx6lu9DH5wLxZ-14" target="T-uDaYiKx6lu9DH5wLxZ-50" edge="1">
          <mxGeometry relative="1" as="geometry">
            <mxPoint x="1069.5" y="-409.99800000000005" as="sourcePoint" />
            <mxPoint x="1070" y="-340" as="targetPoint" />
            <Array as="points">
              <mxPoint x="720" y="-487" />
            </Array>
          </mxGeometry>
        </mxCell>
        <mxCell id="T-uDaYiKx6lu9DH5wLxZ-37" value="0..n" style="resizable=0;html=1;align=left;verticalAlign=top;labelBackgroundColor=none;fontColor=#0000FF;strokeColor=#0000FF;" parent="T-uDaYiKx6lu9DH5wLxZ-36" connectable="0" vertex="1">
          <mxGeometry x="-1" relative="1" as="geometry">
            <mxPoint x="-29" as="offset" />
          </mxGeometry>
        </mxCell>
        <mxCell id="T-uDaYiKx6lu9DH5wLxZ-38" value="in uso in&amp;nbsp;&lt;span style=&quot;font-family: arial, sans-serif; font-size: 16px; text-align: left;&quot;&gt;▼&lt;/span&gt;" style="resizable=0;html=1;align=right;verticalAlign=bottom;labelBackgroundColor=none;fontColor=#0000FF;strokeColor=#0000FF;" parent="T-uDaYiKx6lu9DH5wLxZ-36" connectable="0" vertex="1">
          <mxGeometry x="1" relative="1" as="geometry">
            <mxPoint x="70" y="-105" as="offset" />
          </mxGeometry>
        </mxCell>
        <mxCell id="T-uDaYiKx6lu9DH5wLxZ-39" value="0..n" style="resizable=0;html=1;align=right;verticalAlign=top;labelBackgroundColor=none;fontColor=#0000FF;strokeColor=#0000FF;" parent="T-uDaYiKx6lu9DH5wLxZ-36" connectable="0" vertex="1">
          <mxGeometry x="1" relative="1" as="geometry">
            <mxPoint x="-10" y="-25" as="offset" />
          </mxGeometry>
        </mxCell>
        <mxCell id="T-uDaYiKx6lu9DH5wLxZ-40" value="" style="endArrow=none;html=1;rounded=0;align=center;verticalAlign=top;endFill=0;labelBackgroundColor=none;entryX=0;entryY=0.25;entryDx=0;entryDy=0;" parent="1" source="T-uDaYiKx6lu9DH5wLxZ-16" target="T-uDaYiKx6lu9DH5wLxZ-17" edge="1">
          <mxGeometry relative="1" as="geometry">
            <mxPoint x="1070" y="-260" as="sourcePoint" />
            <mxPoint x="1070" y="-230" as="targetPoint" />
            <Array as="points">
              <mxPoint x="1080" y="-200" />
            </Array>
          </mxGeometry>
        </mxCell>
        <mxCell id="T-uDaYiKx6lu9DH5wLxZ-41" value="0..n" style="resizable=0;html=1;align=left;verticalAlign=top;labelBackgroundColor=none;" parent="T-uDaYiKx6lu9DH5wLxZ-40" connectable="0" vertex="1">
          <mxGeometry x="-1" relative="1" as="geometry">
            <mxPoint as="offset" />
          </mxGeometry>
        </mxCell>
        <mxCell id="T-uDaYiKx6lu9DH5wLxZ-42" value="assegnato a&amp;nbsp;▲" style="resizable=0;html=1;align=right;verticalAlign=bottom;labelBackgroundColor=none;" parent="T-uDaYiKx6lu9DH5wLxZ-40" connectable="0" vertex="1">
          <mxGeometry x="1" relative="1" as="geometry">
            <mxPoint x="-45" y="1" as="offset" />
          </mxGeometry>
        </mxCell>
        <mxCell id="T-uDaYiKx6lu9DH5wLxZ-43" value="0..1" style="resizable=0;html=1;align=right;verticalAlign=top;labelBackgroundColor=none;" parent="T-uDaYiKx6lu9DH5wLxZ-40" connectable="0" vertex="1">
          <mxGeometry x="1" relative="1" as="geometry">
            <mxPoint x="-5" y="1" as="offset" />
          </mxGeometry>
        </mxCell>
        <mxCell id="T-uDaYiKx6lu9DH5wLxZ-50" value="&lt;div style=&quot;text-align: center;&quot;&gt;&lt;b style=&quot;background-color: initial;&quot;&gt;Servizio&lt;/b&gt;&lt;/div&gt;&lt;hr style=&quot;text-align: center; background-color: initial;&quot;&gt;&lt;blockquote style=&quot;margin: 0 0 0 40px; border: none; padding: 0px;&quot;&gt;&lt;/blockquote&gt;&lt;span style=&quot;background-color: initial;&quot;&gt;orario: range ore&lt;/span&gt;&lt;br&gt;&lt;blockquote style=&quot;margin: 0 0 0 40px; border: none; padding: 0px;&quot;&gt;&lt;/blockquote&gt;&lt;span style=&quot;background-color: initial;&quot;&gt;dettagli: testo&lt;/span&gt;&lt;br&gt;&lt;blockquote style=&quot;margin: 0 0 0 40px; border: none; padding: 0px;&quot;&gt;&lt;/blockquote&gt;&lt;span style=&quot;background-color: initial;&quot;&gt;luogo: testo&lt;/span&gt;&lt;br&gt;&lt;blockquote style=&quot;margin: 0 0 0 40px; border: none; padding: 0px;&quot;&gt;&lt;/blockquote&gt;&lt;span style=&quot;background-color: initial;&quot;&gt;qtyPersonale: numero&lt;/span&gt;&lt;br&gt;Nome: testo&lt;br&gt;stato: testo" style="verticalAlign=top;align=left;overflow=fill;fontSize=12;fontFamily=Helvetica;html=1;whiteSpace=wrap;" parent="1" vertex="1">
          <mxGeometry x="650" y="-355.5" width="140" height="119" as="geometry" />
        </mxCell>
        <mxCell id="T-uDaYiKx6lu9DH5wLxZ-51" value="" style="endArrow=diamondThin;html=1;rounded=0;align=center;verticalAlign=top;endFill=1;labelBackgroundColor=none;exitX=1;exitY=0.5;exitDx=0;exitDy=0;entryX=-0.016;entryY=0.39;entryDx=0;entryDy=0;strokeWidth=1;endSize=15;entryPerimeter=0;" parent="1" source="T-uDaYiKx6lu9DH5wLxZ-50" target="T-uDaYiKx6lu9DH5wLxZ-16" edge="1">
          <mxGeometry relative="1" as="geometry">
            <mxPoint x="840" y="-198" as="sourcePoint" />
            <mxPoint x="890" y="-308" as="targetPoint" />
          </mxGeometry>
        </mxCell>
        <mxCell id="T-uDaYiKx6lu9DH5wLxZ-52" value="1..n" style="resizable=0;html=1;align=left;verticalAlign=top;labelBackgroundColor=none;" parent="T-uDaYiKx6lu9DH5wLxZ-51" connectable="0" vertex="1">
          <mxGeometry x="-1" relative="1" as="geometry" />
        </mxCell>
        <mxCell id="T-uDaYiKx6lu9DH5wLxZ-53" value="1" style="resizable=0;html=1;align=right;verticalAlign=top;labelBackgroundColor=none;" parent="T-uDaYiKx6lu9DH5wLxZ-51" connectable="0" vertex="1">
          <mxGeometry x="1" relative="1" as="geometry">
            <mxPoint x="-10" y="-24" as="offset" />
          </mxGeometry>
        </mxCell>
        <mxCell id="T-uDaYiKx6lu9DH5wLxZ-54" value="&lt;font style=&quot;font-size: 12px;&quot;&gt;&amp;nbsp;&lt;/font&gt;&lt;span style=&quot;text-align: center;&quot;&gt;◄&amp;nbsp;&lt;/span&gt;&lt;span style=&quot;color: rgb(32, 33, 36); font-family: arial, sans-serif; text-align: left;&quot;&gt;&lt;font style=&quot;font-size: 12px;&quot;&gt;è formato&amp;nbsp;&lt;/font&gt;&lt;/span&gt;" style="resizable=0;html=1;align=right;verticalAlign=bottom;labelBackgroundColor=none;" parent="1" connectable="0" vertex="1">
          <mxGeometry x="930" y="-296" as="geometry" />
        </mxCell>
        <mxCell id="NJUDxgSn0hPsQpwS32hY-133" style="edgeStyle=orthogonalEdgeStyle;rounded=0;orthogonalLoop=1;jettySize=auto;html=1;exitX=0.5;exitY=0;exitDx=0;exitDy=0;endArrow=diamondThin;endFill=1;entryX=0.5;entryY=1;entryDx=0;entryDy=0;strokeWidth=1;endSize=15;" parent="1" source="NJUDxgSn0hPsQpwS32hY-132" target="T-uDaYiKx6lu9DH5wLxZ-56" edge="1">
          <mxGeometry relative="1" as="geometry">
            <mxPoint x="520" y="-250" as="targetPoint" />
          </mxGeometry>
        </mxCell>
        <mxCell id="T-uDaYiKx6lu9DH5wLxZ-56" value="&lt;p style=&quot;margin:0px;margin-top:4px;text-align:center;&quot;&gt;&lt;b&gt;Foglio Riepilogativo&lt;/b&gt;&lt;/p&gt;&lt;hr size=&quot;1&quot;&gt;&lt;div style=&quot;height:2px;&quot;&gt;&lt;br&gt;&lt;/div&gt;" style="verticalAlign=top;align=left;overflow=fill;fontSize=12;fontFamily=Helvetica;html=1;whiteSpace=wrap;" parent="1" vertex="1">
          <mxGeometry x="405" y="-326" width="140" height="60" as="geometry" />
        </mxCell>
        <mxCell id="T-uDaYiKx6lu9DH5wLxZ-57" value="" style="endArrow=none;html=1;rounded=0;align=center;verticalAlign=top;endFill=0;labelBackgroundColor=none;exitX=0;exitY=0.5;exitDx=0;exitDy=0;entryX=1;entryY=0.5;entryDx=0;entryDy=0;endSize=9;strokeWidth=2;" parent="1" source="T-uDaYiKx6lu9DH5wLxZ-50" target="T-uDaYiKx6lu9DH5wLxZ-56" edge="1">
          <mxGeometry relative="1" as="geometry">
            <mxPoint x="307" y="-296" as="sourcePoint" />
            <mxPoint x="577" y="-186" as="targetPoint" />
          </mxGeometry>
        </mxCell>
        <mxCell id="T-uDaYiKx6lu9DH5wLxZ-58" value="0.1" style="resizable=0;html=1;align=left;verticalAlign=top;labelBackgroundColor=none;" parent="T-uDaYiKx6lu9DH5wLxZ-57" connectable="0" vertex="1">
          <mxGeometry x="-1" relative="1" as="geometry">
            <mxPoint x="-30" as="offset" />
          </mxGeometry>
        </mxCell>
        <mxCell id="T-uDaYiKx6lu9DH5wLxZ-59" value="◀ dispone" style="resizable=0;html=1;align=right;verticalAlign=bottom;labelBackgroundColor=none;" parent="T-uDaYiKx6lu9DH5wLxZ-57" connectable="0" vertex="1">
          <mxGeometry x="1" relative="1" as="geometry">
            <mxPoint x="85" as="offset" />
          </mxGeometry>
        </mxCell>
        <mxCell id="T-uDaYiKx6lu9DH5wLxZ-60" value="1" style="resizable=0;html=1;align=right;verticalAlign=top;labelBackgroundColor=none;" parent="T-uDaYiKx6lu9DH5wLxZ-57" connectable="0" vertex="1">
          <mxGeometry x="1" relative="1" as="geometry">
            <mxPoint x="15" as="offset" />
          </mxGeometry>
        </mxCell>
        <mxCell id="T-uDaYiKx6lu9DH5wLxZ-61" value="è costituito&amp;nbsp;&lt;span style=&quot;color: rgb(32 , 33 , 36) ; font-family: &amp;quot;arial&amp;quot; , sans-serif ; font-size: 16px ; text-align: left&quot;&gt;▼&lt;/span&gt;" style="resizable=0;html=1;align=right;verticalAlign=bottom;labelBackgroundColor=none;" parent="1" connectable="0" vertex="1">
          <mxGeometry x="474.99731970956555" y="-206.00338131139847" as="geometry" />
        </mxCell>
        <mxCell id="v4zvz2262ah-m5e5Bur2-4" style="edgeStyle=orthogonalEdgeStyle;rounded=0;orthogonalLoop=1;jettySize=auto;html=1;exitX=0.5;exitY=1;exitDx=0;exitDy=0;endArrow=block;endFill=0;entryX=0.5;entryY=0;entryDx=0;entryDy=0;" parent="1" source="T-uDaYiKx6lu9DH5wLxZ-62" target="v4zvz2262ah-m5e5Bur2-5" edge="1">
          <mxGeometry relative="1" as="geometry">
            <mxPoint x="1640" y="-160" as="targetPoint" />
            <Array as="points">
              <mxPoint x="1780" y="-200" />
              <mxPoint x="1620" y="-200" />
            </Array>
          </mxGeometry>
        </mxCell>
        <mxCell id="v4zvz2262ah-m5e5Bur2-6" style="edgeStyle=orthogonalEdgeStyle;rounded=0;orthogonalLoop=1;jettySize=auto;html=1;exitX=1;exitY=0.5;exitDx=0;exitDy=0;entryX=1;entryY=0.5;entryDx=0;entryDy=0;endArrow=none;endFill=0;" parent="1" source="T-uDaYiKx6lu9DH5wLxZ-62" target="v4zvz2262ah-m5e5Bur2-5" edge="1">
          <mxGeometry relative="1" as="geometry" />
        </mxCell>
        <mxCell id="T-uDaYiKx6lu9DH5wLxZ-62" value="&lt;p style=&quot;margin:0px;margin-top:4px;text-align:center;&quot;&gt;&lt;br&gt;&lt;b&gt;Preparazione&lt;/b&gt;&lt;/p&gt;&lt;hr&gt;descrizione: testo" style="verticalAlign=top;align=left;overflow=fill;fontSize=12;fontFamily=Helvetica;html=1;whiteSpace=wrap;" parent="1" vertex="1">
          <mxGeometry x="1710" y="-316" width="140" height="66" as="geometry" />
        </mxCell>
        <mxCell id="v4zvz2262ah-m5e5Bur2-23" style="edgeStyle=orthogonalEdgeStyle;rounded=0;orthogonalLoop=1;jettySize=auto;html=1;exitX=1;exitY=0.5;exitDx=0;exitDy=0;entryX=-0.004;entryY=0.22;entryDx=0;entryDy=0;entryPerimeter=0;endArrow=none;endFill=0;" parent="1" source="T-uDaYiKx6lu9DH5wLxZ-65" target="T-uDaYiKx6lu9DH5wLxZ-68" edge="1">
          <mxGeometry relative="1" as="geometry" />
        </mxCell>
        <mxCell id="uhIot2lVFOxbi4M5OTPC-1" style="edgeStyle=orthogonalEdgeStyle;rounded=0;orthogonalLoop=1;jettySize=auto;html=1;exitX=0.5;exitY=0;exitDx=0;exitDy=0;entryX=0;entryY=0.5;entryDx=0;entryDy=0;endArrow=none;endFill=0;" parent="1" source="T-uDaYiKx6lu9DH5wLxZ-65" target="NJUDxgSn0hPsQpwS32hY-132" edge="1">
          <mxGeometry relative="1" as="geometry">
            <Array as="points">
              <mxPoint y="-135" />
            </Array>
          </mxGeometry>
        </mxCell>
        <mxCell id="T-uDaYiKx6lu9DH5wLxZ-65" value="&lt;p style=&quot;margin:0px;margin-top:4px;text-align:center;&quot;&gt;&lt;br&gt;&lt;b&gt;Cuoco&lt;/b&gt;&lt;/p&gt;&lt;hr&gt;nomeCuoco : testo" style="verticalAlign=top;align=left;overflow=fill;fontSize=12;fontFamily=Helvetica;html=1;whiteSpace=wrap;" parent="1" vertex="1">
          <mxGeometry x="-70" y="50.45" width="140" height="80" as="geometry" />
        </mxCell>
        <mxCell id="v4zvz2262ah-m5e5Bur2-11" style="edgeStyle=orthogonalEdgeStyle;rounded=0;orthogonalLoop=1;jettySize=auto;html=1;exitX=0.25;exitY=0;exitDx=0;exitDy=0;entryX=0.5;entryY=1;entryDx=0;entryDy=0;endArrow=none;endFill=0;endSize=13;" parent="1" source="T-uDaYiKx6lu9DH5wLxZ-67" target="NJUDxgSn0hPsQpwS32hY-132" edge="1">
          <mxGeometry relative="1" as="geometry">
            <Array as="points">
              <mxPoint x="340" y="-40" />
              <mxPoint x="475" y="-40" />
            </Array>
          </mxGeometry>
        </mxCell>
        <mxCell id="Y_MUoPn_G3-hdeMt0CoU-10" style="edgeStyle=orthogonalEdgeStyle;rounded=0;orthogonalLoop=1;jettySize=auto;html=1;exitX=0.5;exitY=0;exitDx=0;exitDy=0;entryX=0.489;entryY=1.016;entryDx=0;entryDy=0;entryPerimeter=0;endArrow=block;endFill=0;endSize=11;" parent="1" source="T-uDaYiKx6lu9DH5wLxZ-67" target="Y_MUoPn_G3-hdeMt0CoU-5" edge="1">
          <mxGeometry relative="1" as="geometry">
            <Array as="points">
              <mxPoint x="390" y="190" />
              <mxPoint x="473" y="190" />
            </Array>
          </mxGeometry>
        </mxCell>
        <mxCell id="T-uDaYiKx6lu9DH5wLxZ-67" value="turno di cucina" style="swimlane;fontStyle=0;childLayout=stackLayout;horizontal=1;startSize=26;horizontalStack=0;resizeParent=1;resizeParentMax=0;resizeLast=0;collapsible=1;marginBottom=0;labelBackgroundColor=none;" parent="1" vertex="1">
          <mxGeometry x="290.0000000000002" y="295.45" width="200" height="70" as="geometry" />
        </mxCell>
        <mxCell id="T-uDaYiKx6lu9DH5wLxZ-68" value="giorno: Data&#xa;orario: range ore" style="text;strokeColor=none;fillColor=none;align=left;verticalAlign=top;spacingLeft=4;spacingRight=4;overflow=hidden;rotatable=0;points=[[0,0.5],[1,0.5]];portConstraint=eastwest;labelBackgroundColor=none;fontColor=#000000;" parent="T-uDaYiKx6lu9DH5wLxZ-67" vertex="1">
          <mxGeometry y="26" width="200" height="44" as="geometry" />
        </mxCell>
        <mxCell id="T-uDaYiKx6lu9DH5wLxZ-80" value="nota compito" style="swimlane;fontStyle=0;childLayout=stackLayout;horizontal=1;startSize=26;horizontalStack=0;resizeParent=1;resizeParentMax=0;resizeLast=0;collapsible=1;marginBottom=0;labelBackgroundColor=none;" parent="1" vertex="1">
          <mxGeometry x="95.00000000000023" y="-312" width="140" height="70" as="geometry" />
        </mxCell>
        <mxCell id="T-uDaYiKx6lu9DH5wLxZ-81" value="+ nome: testo&#xa;+ descrizione : testo" style="text;strokeColor=none;fillColor=none;align=left;verticalAlign=top;spacingLeft=4;spacingRight=4;overflow=hidden;rotatable=0;points=[[0,0.5],[1,0.5]];portConstraint=eastwest;labelBackgroundColor=none;fontColor=#000000;" parent="T-uDaYiKx6lu9DH5wLxZ-80" vertex="1">
          <mxGeometry y="26" width="140" height="44" as="geometry" />
        </mxCell>
        <mxCell id="T-uDaYiKx6lu9DH5wLxZ-82" value="" style="endArrow=none;html=1;rounded=0;align=center;verticalAlign=top;endFill=0;labelBackgroundColor=none;exitX=0;exitY=0;exitDx=0;exitDy=0;" parent="1" source="NJUDxgSn0hPsQpwS32hY-132" target="T-uDaYiKx6lu9DH5wLxZ-80" edge="1">
          <mxGeometry relative="1" as="geometry">
            <mxPoint x="760" y="-228.5" as="sourcePoint" />
            <mxPoint x="115" y="-514" as="targetPoint" />
            <Array as="points">
              <mxPoint x="320" y="-240" />
            </Array>
          </mxGeometry>
        </mxCell>
        <mxCell id="T-uDaYiKx6lu9DH5wLxZ-83" value="1" style="resizable=0;html=1;align=left;verticalAlign=top;labelBackgroundColor=none;" parent="T-uDaYiKx6lu9DH5wLxZ-82" connectable="0" vertex="1">
          <mxGeometry x="-1" relative="1" as="geometry">
            <mxPoint x="-12" y="-6" as="offset" />
          </mxGeometry>
        </mxCell>
        <mxCell id="T-uDaYiKx6lu9DH5wLxZ-84" value="◀contiene" style="resizable=0;html=1;align=right;verticalAlign=bottom;labelBackgroundColor=none;" parent="T-uDaYiKx6lu9DH5wLxZ-82" connectable="0" vertex="1">
          <mxGeometry x="1" relative="1" as="geometry">
            <mxPoint x="115" y="10" as="offset" />
          </mxGeometry>
        </mxCell>
        <mxCell id="T-uDaYiKx6lu9DH5wLxZ-85" value="0..n" style="resizable=0;html=1;align=right;verticalAlign=top;labelBackgroundColor=none;" parent="T-uDaYiKx6lu9DH5wLxZ-82" connectable="0" vertex="1">
          <mxGeometry x="1" relative="1" as="geometry">
            <mxPoint x="30" y="-22" as="offset" />
          </mxGeometry>
        </mxCell>
        <mxCell id="T-uDaYiKx6lu9DH5wLxZ-86" value="▼ viene effettuato" style="resizable=0;html=1;align=right;verticalAlign=bottom;labelBackgroundColor=none;" parent="1" connectable="0" vertex="1">
          <mxGeometry x="439.995454545455" y="-20" as="geometry" />
        </mxCell>
        <mxCell id="v4zvz2262ah-m5e5Bur2-15" style="edgeStyle=orthogonalEdgeStyle;rounded=0;orthogonalLoop=1;jettySize=auto;html=1;exitX=0;exitY=0.5;exitDx=0;exitDy=0;endArrow=diamondThin;endFill=1;endSize=12;" parent="1" source="v4zvz2262ah-m5e5Bur2-5" target="NJUDxgSn0hPsQpwS32hY-132" edge="1">
          <mxGeometry relative="1" as="geometry">
            <mxPoint x="710" y="20" as="targetPoint" />
            <Array as="points">
              <mxPoint x="1480" y="-45" />
              <mxPoint x="1480" y="180" />
              <mxPoint x="800" y="180" />
              <mxPoint x="800" y="-122" />
            </Array>
          </mxGeometry>
        </mxCell>
        <mxCell id="qgJG2-PVkp0Q0F3bQJYU-3" style="edgeStyle=orthogonalEdgeStyle;rounded=0;orthogonalLoop=1;jettySize=auto;html=1;exitX=0;exitY=0.25;exitDx=0;exitDy=0;endArrow=none;endFill=0;" parent="1" source="v4zvz2262ah-m5e5Bur2-5" target="T-uDaYiKx6lu9DH5wLxZ-14" edge="1">
          <mxGeometry relative="1" as="geometry">
            <mxPoint x="1200" y="-430" as="targetPoint" />
            <Array as="points">
              <mxPoint x="1370" y="-67" />
              <mxPoint x="1370" y="-230" />
              <mxPoint x="1310" y="-230" />
              <mxPoint x="1310" y="-390" />
              <mxPoint x="1210" y="-390" />
              <mxPoint x="1210" y="-430" />
            </Array>
          </mxGeometry>
        </mxCell>
        <mxCell id="v4zvz2262ah-m5e5Bur2-5" value="&lt;p style=&quot;margin:0px;margin-top:4px;text-align:center;&quot;&gt;&lt;br&gt;&lt;b&gt;Procedura di cucina&lt;/b&gt;&lt;/p&gt;&lt;hr&gt;" style="verticalAlign=top;align=left;overflow=fill;fontSize=12;fontFamily=Helvetica;html=1;whiteSpace=wrap;" parent="1" vertex="1">
          <mxGeometry x="1550" y="-90" width="140" height="90" as="geometry" />
        </mxCell>
        <mxCell id="v4zvz2262ah-m5e5Bur2-8" value="0..n" style="resizable=0;html=1;align=left;verticalAlign=top;labelBackgroundColor=none;" parent="1" connectable="0" vertex="1">
          <mxGeometry x="1850" y="-308.99800000000005" as="geometry" />
        </mxCell>
        <mxCell id="v4zvz2262ah-m5e5Bur2-9" value="0..n" style="resizable=0;html=1;align=left;verticalAlign=top;labelBackgroundColor=none;" parent="1" connectable="0" vertex="1">
          <mxGeometry x="1690" y="-69.99800000000005" as="geometry" />
        </mxCell>
        <mxCell id="v4zvz2262ah-m5e5Bur2-10" value="è un composto&amp;nbsp;&lt;span style=&quot;color: rgb(32 , 33 , 36) ; font-family: &amp;quot;arial&amp;quot; , sans-serif ; font-size: 16px ; text-align: left&quot;&gt;▼&lt;/span&gt;" style="resizable=0;html=1;align=right;verticalAlign=bottom;labelBackgroundColor=none;" parent="1" connectable="0" vertex="1">
          <mxGeometry x="1870.00190806501" y="-143.99673990910463" as="geometry" />
        </mxCell>
        <mxCell id="v4zvz2262ah-m5e5Bur2-12" value="0..n" style="resizable=0;html=1;align=right;verticalAlign=top;labelBackgroundColor=none;" parent="1" connectable="0" vertex="1">
          <mxGeometry x="500" y="-80.00379310344809" as="geometry" />
        </mxCell>
        <mxCell id="v4zvz2262ah-m5e5Bur2-13" value="0..1" style="resizable=0;html=1;align=right;verticalAlign=top;labelBackgroundColor=none;" parent="1" connectable="0" vertex="1">
          <mxGeometry x="330" y="269.99620689655194" as="geometry" />
        </mxCell>
        <mxCell id="v4zvz2262ah-m5e5Bur2-16" value="0..n" style="resizable=0;html=1;align=left;verticalAlign=top;labelBackgroundColor=none;" parent="1" connectable="0" vertex="1">
          <mxGeometry x="590" y="-131.99800000000005" as="geometry">
            <mxPoint x="-21" y="-19" as="offset" />
          </mxGeometry>
        </mxCell>
        <mxCell id="v4zvz2262ah-m5e5Bur2-17" value="1" style="resizable=0;html=1;align=left;verticalAlign=top;labelBackgroundColor=none;" parent="1" connectable="0" vertex="1">
          <mxGeometry x="1530" y="-69.99800000000005" as="geometry" />
        </mxCell>
        <mxCell id="v4zvz2262ah-m5e5Bur2-18" value="consiste ▶" style="resizable=0;html=1;align=right;verticalAlign=bottom;labelBackgroundColor=none;" parent="1" connectable="0" vertex="1">
          <mxGeometry x="1165.7404339719078" y="179.9956410414053" as="geometry" />
        </mxCell>
        <mxCell id="v4zvz2262ah-m5e5Bur2-20" value="Tabellone turni" style="swimlane;fontStyle=0;childLayout=stackLayout;horizontal=1;startSize=26;horizontalStack=0;resizeParent=1;resizeParentMax=0;resizeLast=0;collapsible=1;marginBottom=0;labelBackgroundColor=none;" parent="1" vertex="1">
          <mxGeometry x="430.0000000000002" y="480" width="200" height="70" as="geometry" />
        </mxCell>
        <mxCell id="v4zvz2262ah-m5e5Bur2-22" value="giorno : data &#xa;Turni : lista di turni" style="text;strokeColor=none;fillColor=none;align=left;verticalAlign=top;spacingLeft=4;spacingRight=4;overflow=hidden;rotatable=0;points=[[0,0.5],[1,0.5]];portConstraint=eastwest;labelBackgroundColor=none;fontColor=#000000;" parent="v4zvz2262ah-m5e5Bur2-20" vertex="1">
          <mxGeometry y="26" width="200" height="44" as="geometry" />
        </mxCell>
        <mxCell id="v4zvz2262ah-m5e5Bur2-24" value="&lt;font color=&quot;#000000&quot;&gt;è disponibile&amp;nbsp;&lt;span style=&quot;font-family: arial, sans-serif; font-size: 16px; text-align: left;&quot;&gt;▶&lt;/span&gt;&lt;/font&gt;" style="resizable=0;html=1;align=right;verticalAlign=bottom;labelBackgroundColor=none;fontColor=#0000FF;strokeColor=#0000FF;" parent="1" connectable="0" vertex="1">
          <mxGeometry x="209.99987396761162" y="90.44999518323647" as="geometry" />
        </mxCell>
        <mxCell id="v4zvz2262ah-m5e5Bur2-26" value="Nota&lt;br&gt;un cuoco deve essere disponibile in quel &lt;br&gt;turno per poter effettuare un compito" style="text;html=1;align=center;verticalAlign=middle;resizable=0;points=[];autosize=1;strokeColor=#d6b656;fillColor=#fff2cc;" parent="1" vertex="1">
          <mxGeometry x="-145" y="230" width="240" height="60" as="geometry" />
        </mxCell>
        <mxCell id="v4zvz2262ah-m5e5Bur2-27" value="1" style="resizable=0;html=1;align=right;verticalAlign=top;labelBackgroundColor=none;" parent="1" connectable="0" vertex="1">
          <mxGeometry x="472.5" y="449.9962068965519" as="geometry" />
        </mxCell>
        <mxCell id="v4zvz2262ah-m5e5Bur2-28" value="0..n" style="resizable=0;html=1;align=left;verticalAlign=top;labelBackgroundColor=none;" parent="1" connectable="0" vertex="1">
          <mxGeometry x="390" y="365.45" as="geometry" />
        </mxCell>
        <mxCell id="GKcD6lCspWD0cgYsQkJi-1" value="0..n" style="resizable=0;html=1;align=right;verticalAlign=top;labelBackgroundColor=none;" parent="1" connectable="0" vertex="1">
          <mxGeometry x="95.00456553724791" y="68.00019727947328" as="geometry" />
        </mxCell>
        <mxCell id="GKcD6lCspWD0cgYsQkJi-2" value="&lt;span style=&quot;font-weight: normal;&quot;&gt;0..n&lt;/span&gt;" style="resizable=0;html=1;align=right;verticalAlign=top;labelBackgroundColor=none;fontStyle=1" parent="1" connectable="0" vertex="1">
          <mxGeometry x="285" y="302.99620689655194" as="geometry" />
        </mxCell>
        <mxCell id="gmMrnef-Jr5Ub0kkcMSu-6" value="Ricettario" style="swimlane;fontStyle=0;childLayout=stackLayout;horizontal=1;startSize=26;horizontalStack=0;resizeParent=1;resizeParentMax=0;resizeLast=0;collapsible=1;marginBottom=0;labelBackgroundColor=none;" parent="1" vertex="1">
          <mxGeometry x="1550" y="88.49000000000001" width="140" height="52" as="geometry" />
        </mxCell>
        <mxCell id="gmMrnef-Jr5Ub0kkcMSu-7" value="descrizione: testo" style="text;strokeColor=none;fillColor=none;align=left;verticalAlign=top;spacingLeft=4;spacingRight=4;overflow=hidden;rotatable=0;points=[[0,0.5],[1,0.5]];portConstraint=eastwest;labelBackgroundColor=none;fontColor=#000000;" parent="1" vertex="1">
          <mxGeometry x="1550" y="114.49000000000001" width="140" height="26" as="geometry" />
        </mxCell>
        <mxCell id="gmMrnef-Jr5Ub0kkcMSu-8" value="" style="endArrow=none;html=1;rounded=0;align=center;verticalAlign=top;endFill=0;labelBackgroundColor=none;entryX=0.5;entryY=0;entryDx=0;entryDy=0;" parent="1" edge="1">
          <mxGeometry relative="1" as="geometry">
            <mxPoint x="1621" as="sourcePoint" />
            <mxPoint x="1620.98" y="88.49000000000001" as="targetPoint" />
          </mxGeometry>
        </mxCell>
        <mxCell id="gmMrnef-Jr5Ub0kkcMSu-9" value="0..n" style="resizable=0;html=1;align=left;verticalAlign=top;labelBackgroundColor=none;" parent="gmMrnef-Jr5Ub0kkcMSu-8" connectable="0" vertex="1">
          <mxGeometry x="-1" relative="1" as="geometry">
            <mxPoint x="-29" as="offset" />
          </mxGeometry>
        </mxCell>
        <mxCell id="gmMrnef-Jr5Ub0kkcMSu-10" value="si trova in&amp;nbsp;&lt;span style=&quot;color: rgb(32 , 33 , 36) ; font-family: &amp;#34;arial&amp;#34; , sans-serif ; font-size: 16px ; text-align: left&quot;&gt;▼&lt;/span&gt;" style="resizable=0;html=1;align=right;verticalAlign=bottom;labelBackgroundColor=none;" parent="gmMrnef-Jr5Ub0kkcMSu-8" connectable="0" vertex="1">
          <mxGeometry x="1" relative="1" as="geometry">
            <mxPoint x="79" y="-30" as="offset" />
          </mxGeometry>
        </mxCell>
        <mxCell id="gmMrnef-Jr5Ub0kkcMSu-11" value="1" style="resizable=0;html=1;align=right;verticalAlign=top;labelBackgroundColor=none;" parent="gmMrnef-Jr5Ub0kkcMSu-8" connectable="0" vertex="1">
          <mxGeometry x="1" relative="1" as="geometry">
            <mxPoint x="-11" y="-30" as="offset" />
          </mxGeometry>
        </mxCell>
        <mxCell id="NVmeOIleyrCUMZHQDek0-1" style="edgeStyle=orthogonalEdgeStyle;rounded=0;orthogonalLoop=1;jettySize=auto;html=1;exitX=0.5;exitY=0;exitDx=0;exitDy=0;entryX=0.56;entryY=1.007;entryDx=0;entryDy=0;entryPerimeter=0;endArrow=none;endFill=0;" parent="1" source="T-uDaYiKx6lu9DH5wLxZ-17" target="T-uDaYiKx6lu9DH5wLxZ-14" edge="1">
          <mxGeometry relative="1" as="geometry">
            <Array as="points">
              <mxPoint x="1275" y="-370" />
              <mxPoint x="1078" y="-370" />
            </Array>
          </mxGeometry>
        </mxCell>
        <mxCell id="NVmeOIleyrCUMZHQDek0-2" value="&lt;span style=&quot;font-family: Helvetica; font-size: 12px; font-style: normal; font-variant-ligatures: normal; font-variant-caps: normal; font-weight: 400; letter-spacing: normal; orphans: 2; text-align: right; text-indent: 0px; text-transform: none; widows: 2; word-spacing: 0px; -webkit-text-stroke-width: 0px; background-color: rgb(251, 251, 251); text-decoration-thickness: initial; text-decoration-style: initial; text-decoration-color: initial; float: none; display: inline !important;&quot;&gt;è creatore di&amp;nbsp;&amp;nbsp;&lt;/span&gt;&lt;span style=&quot;border-color: var(--border-color); font-style: normal; font-variant-ligatures: normal; font-variant-caps: normal; font-weight: 400; letter-spacing: normal; orphans: 2; text-indent: 0px; text-transform: none; widows: 2; word-spacing: 0px; -webkit-text-stroke-width: 0px; background-color: rgb(251, 251, 251); text-decoration-thickness: initial; text-decoration-style: initial; text-decoration-color: initial; font-family: arial, sans-serif; font-size: 16px; text-align: left;&quot;&gt;▲&lt;/span&gt;" style="text;whiteSpace=wrap;html=1;" parent="1" vertex="1">
          <mxGeometry x="1190" y="-369" width="80" height="20" as="geometry" />
        </mxCell>
        <mxCell id="NVmeOIleyrCUMZHQDek0-3" value="0..n" style="text;html=1;align=center;verticalAlign=middle;resizable=0;points=[];autosize=1;strokeColor=none;fillColor=none;" parent="1" vertex="1">
          <mxGeometry x="1270" y="-244" width="40" height="30" as="geometry" />
        </mxCell>
        <mxCell id="NVmeOIleyrCUMZHQDek0-4" value="0..n" style="text;html=1;align=center;verticalAlign=middle;resizable=0;points=[];autosize=1;strokeColor=none;fillColor=none;" parent="1" vertex="1">
          <mxGeometry x="1075" y="-410" width="40" height="30" as="geometry" />
        </mxCell>
        <mxCell id="NJUDxgSn0hPsQpwS32hY-84" value="&lt;font color=&quot;#fa00e5&quot;&gt;{ordered}&lt;/font&gt;" style="text;html=1;strokeColor=none;fillColor=none;align=center;verticalAlign=middle;whiteSpace=wrap;rounded=0;" parent="1" vertex="1">
          <mxGeometry x="1230" y="-670" width="60" height="30" as="geometry" />
        </mxCell>
        <mxCell id="NJUDxgSn0hPsQpwS32hY-85" value="&lt;font color=&quot;#fa00e5&quot;&gt;{ordered}&lt;/font&gt;" style="text;html=1;strokeColor=none;fillColor=none;align=center;verticalAlign=middle;whiteSpace=wrap;rounded=0;" parent="1" vertex="1">
          <mxGeometry x="1230" y="-495" width="60" height="30" as="geometry" />
        </mxCell>
        <mxCell id="NJUDxgSn0hPsQpwS32hY-86" value="&lt;font color=&quot;#fa00e5&quot;&gt;{ordered}&lt;/font&gt;" style="text;html=1;strokeColor=none;fillColor=none;align=center;verticalAlign=middle;whiteSpace=wrap;rounded=0;" parent="1" vertex="1">
          <mxGeometry x="400" y="-250" width="60" height="30" as="geometry" />
        </mxCell>
        <mxCell id="NJUDxgSn0hPsQpwS32hY-87" style="edgeStyle=orthogonalEdgeStyle;rounded=0;orthogonalLoop=1;jettySize=auto;html=1;exitX=1;exitY=0.5;exitDx=0;exitDy=0;entryX=-0.007;entryY=0.643;entryDx=0;entryDy=0;entryPerimeter=0;endArrow=none;endFill=0;" parent="1" source="T-uDaYiKx6lu9DH5wLxZ-10" target="T-uDaYiKx6lu9DH5wLxZ-62" edge="1">
          <mxGeometry relative="1" as="geometry" />
        </mxCell>
        <mxCell id="NJUDxgSn0hPsQpwS32hY-88" value="◄ fa parte di" style="text;html=1;align=center;verticalAlign=middle;resizable=0;points=[];autosize=1;strokeColor=none;fillColor=none;" parent="1" vertex="1">
          <mxGeometry x="1540" y="-301" width="90" height="30" as="geometry" />
        </mxCell>
        <mxCell id="NJUDxgSn0hPsQpwS32hY-90" value="0..n" style="text;html=1;align=center;verticalAlign=middle;resizable=0;points=[];autosize=1;strokeColor=none;fillColor=none;" parent="1" vertex="1">
          <mxGeometry x="1670" y="-301" width="40" height="30" as="geometry" />
        </mxCell>
        <mxCell id="NJUDxgSn0hPsQpwS32hY-91" value="0..n" style="text;html=1;align=center;verticalAlign=middle;resizable=0;points=[];autosize=1;strokeColor=none;fillColor=none;" parent="1" vertex="1">
          <mxGeometry x="1470" y="-301" width="40" height="30" as="geometry" />
        </mxCell>
        <mxCell id="NJUDxgSn0hPsQpwS32hY-92" value="Nota&lt;br&gt;una voce può comparire come specifica ad una sezione&lt;br&gt;oppure &quot;libera&quot;, nel caso ci siano entrambi si guarda quella&lt;br&gt;specifica alla sezione" style="text;html=1;align=center;verticalAlign=middle;resizable=0;points=[];autosize=1;strokeColor=#d6b656;fillColor=#fff2cc;" parent="1" vertex="1">
          <mxGeometry x="1510" y="-535" width="340" height="70" as="geometry" />
        </mxCell>
        <mxCell id="NJUDxgSn0hPsQpwS32hY-97" style="edgeStyle=orthogonalEdgeStyle;rounded=0;orthogonalLoop=1;jettySize=auto;html=1;exitX=0.5;exitY=0;exitDx=0;exitDy=0;entryX=0.25;entryY=0;entryDx=0;entryDy=0;endArrow=none;endFill=0;" parent="1" source="NJUDxgSn0hPsQpwS32hY-94" target="T-uDaYiKx6lu9DH5wLxZ-50" edge="1">
          <mxGeometry relative="1" as="geometry">
            <Array as="points">
              <mxPoint x="-186" y="-356" />
            </Array>
          </mxGeometry>
        </mxCell>
        <mxCell id="Y_MUoPn_G3-hdeMt0CoU-36" style="edgeStyle=orthogonalEdgeStyle;rounded=0;orthogonalLoop=1;jettySize=auto;html=1;exitX=0;exitY=0.25;exitDx=0;exitDy=0;endArrow=none;endFill=0;" parent="1" source="NJUDxgSn0hPsQpwS32hY-94" target="Y_MUoPn_G3-hdeMt0CoU-3" edge="1">
          <mxGeometry relative="1" as="geometry">
            <mxPoint x="740" y="420" as="targetPoint" />
            <Array as="points">
              <mxPoint x="-490" y="-312" />
              <mxPoint x="-490" y="580" />
              <mxPoint x="820" y="580" />
              <mxPoint x="820" y="440" />
              <mxPoint x="740" y="440" />
            </Array>
          </mxGeometry>
        </mxCell>
        <mxCell id="NJUDxgSn0hPsQpwS32hY-94" value="incarico di servizio" style="swimlane;fontStyle=0;childLayout=stackLayout;horizontal=1;startSize=26;horizontalStack=0;resizeParent=1;resizeParentMax=0;resizeLast=0;collapsible=1;marginBottom=0;labelBackgroundColor=none;" parent="1" vertex="1">
          <mxGeometry x="-260.74" y="-329" width="150" height="70" as="geometry">
            <mxRectangle x="605" y="55.45" width="140" height="30" as="alternateBounds" />
          </mxGeometry>
        </mxCell>
        <mxCell id="NJUDxgSn0hPsQpwS32hY-95" value="ruolo: testo" style="text;strokeColor=none;fillColor=none;align=left;verticalAlign=top;spacingLeft=4;spacingRight=4;overflow=hidden;rotatable=0;points=[[0,0.5],[1,0.5]];portConstraint=eastwest;labelBackgroundColor=none;fontColor=#000000;" parent="NJUDxgSn0hPsQpwS32hY-94" vertex="1">
          <mxGeometry y="26" width="150" height="44" as="geometry" />
        </mxCell>
        <mxCell id="NJUDxgSn0hPsQpwS32hY-96" style="edgeStyle=orthogonalEdgeStyle;rounded=0;orthogonalLoop=1;jettySize=auto;html=1;exitX=0;exitY=0.5;exitDx=0;exitDy=0;entryX=0;entryY=0.5;entryDx=0;entryDy=0;endArrow=none;endFill=0;" parent="1" source="uhIot2lVFOxbi4M5OTPC-14" target="NJUDxgSn0hPsQpwS32hY-95" edge="1">
          <mxGeometry relative="1" as="geometry" />
        </mxCell>
        <mxCell id="NJUDxgSn0hPsQpwS32hY-98" value="svolge ▶" style="text;whiteSpace=wrap;html=1;" parent="1" vertex="1">
          <mxGeometry x="-398" y="-126.74999999999999" width="80" height="27" as="geometry" />
        </mxCell>
        <mxCell id="NJUDxgSn0hPsQpwS32hY-99" value="0..n" style="text;html=1;align=center;verticalAlign=middle;resizable=0;points=[];autosize=1;strokeColor=none;fillColor=none;" parent="1" vertex="1">
          <mxGeometry x="-225.74" y="-359" width="40" height="30" as="geometry" />
        </mxCell>
        <mxCell id="NJUDxgSn0hPsQpwS32hY-100" value="1" style="text;html=1;align=center;verticalAlign=middle;resizable=0;points=[];autosize=1;strokeColor=none;fillColor=none;" parent="1" vertex="1">
          <mxGeometry x="-428" y="90.45" width="30" height="30" as="geometry" />
        </mxCell>
        <mxCell id="NJUDxgSn0hPsQpwS32hY-101" value="da effettuare ▶" style="text;whiteSpace=wrap;html=1;" parent="1" vertex="1">
          <mxGeometry x="-45" y="-354" width="90" height="20" as="geometry" />
        </mxCell>
        <mxCell id="NJUDxgSn0hPsQpwS32hY-102" value="0..n" style="resizable=0;html=1;align=left;verticalAlign=top;labelBackgroundColor=none;" parent="1" connectable="0" vertex="1">
          <mxGeometry x="620" y="-359" as="geometry" />
        </mxCell>
        <mxCell id="NJUDxgSn0hPsQpwS32hY-103" value="0..n" style="resizable=0;html=1;align=left;verticalAlign=top;labelBackgroundColor=none;" parent="1" connectable="0" vertex="1">
          <mxGeometry x="-290" y="-282" as="geometry" />
        </mxCell>
        <mxCell id="NJUDxgSn0hPsQpwS32hY-129" value="&lt;p style=&quot;margin:0px;margin-top:4px;text-align:center;&quot;&gt;&lt;br&gt;&lt;b&gt;Personale di servizio&lt;/b&gt;&lt;/p&gt;&lt;hr&gt;" style="verticalAlign=top;align=left;overflow=fill;fontSize=12;fontFamily=Helvetica;html=1;whiteSpace=wrap;" parent="1" vertex="1">
          <mxGeometry x="-230" y="50.45" width="140" height="80" as="geometry" />
        </mxCell>
        <mxCell id="NJUDxgSn0hPsQpwS32hY-132" value="&lt;p style=&quot;margin:0px;margin-top:4px;text-align:center;&quot;&gt;&lt;br&gt;&lt;b&gt;Compito&lt;/b&gt;&lt;/p&gt;&lt;hr&gt;quantità: numero&lt;br&gt;tempo stimato: numero&lt;br&gt;completato: sì/no&lt;br&gt;" style="verticalAlign=top;align=left;overflow=fill;fontSize=12;fontFamily=Helvetica;html=1;whiteSpace=wrap;" parent="1" vertex="1">
          <mxGeometry x="392.5" y="-183.5" width="165" height="103.5" as="geometry" />
        </mxCell>
        <mxCell id="uhIot2lVFOxbi4M5OTPC-2" value="&lt;font color=&quot;#000000&quot;&gt;effettua&amp;nbsp;&lt;span style=&quot;font-family: arial, sans-serif; font-size: 16px; text-align: left;&quot;&gt;▶&lt;/span&gt;&lt;/font&gt;" style="resizable=0;html=1;align=right;verticalAlign=bottom;labelBackgroundColor=none;fontColor=#0000FF;strokeColor=#0000FF;" parent="1" connectable="0" vertex="1">
          <mxGeometry x="189.99987396761162" y="-110.00000481676352" as="geometry" />
        </mxCell>
        <mxCell id="uhIot2lVFOxbi4M5OTPC-3" value="1..n" style="text;html=1;align=center;verticalAlign=middle;resizable=0;points=[];autosize=1;strokeColor=none;fillColor=none;" parent="1" vertex="1">
          <mxGeometry y="20.45" width="40" height="30" as="geometry" />
        </mxCell>
        <mxCell id="uhIot2lVFOxbi4M5OTPC-4" value="0..n" style="text;html=1;align=center;verticalAlign=middle;resizable=0;points=[];autosize=1;strokeColor=none;fillColor=none;" parent="1" vertex="1">
          <mxGeometry x="350" y="-132" width="40" height="30" as="geometry" />
        </mxCell>
        <mxCell id="uhIot2lVFOxbi4M5OTPC-14" value="&lt;p style=&quot;margin:0px;margin-top:4px;text-align:center;&quot;&gt;&lt;br&gt;&lt;b&gt;Personale&lt;/b&gt;&lt;/p&gt;&lt;hr&gt;" style="verticalAlign=top;align=left;overflow=fill;fontSize=12;fontFamily=Helvetica;html=1;whiteSpace=wrap;" parent="1" vertex="1">
          <mxGeometry x="-390" y="50.45" width="140" height="80" as="geometry" />
        </mxCell>
        <mxCell id="_O6t_xjoy0FSQac_qxvD-1" value="" style="endArrow=block;html=1;rounded=0;exitX=0.25;exitY=0;exitDx=0;exitDy=0;entryX=0.5;entryY=0;entryDx=0;entryDy=0;endFill=0;" parent="1" source="T-uDaYiKx6lu9DH5wLxZ-65" target="uhIot2lVFOxbi4M5OTPC-14" edge="1">
          <mxGeometry width="50" height="50" relative="1" as="geometry">
            <mxPoint x="-80" y="-20" as="sourcePoint" />
            <mxPoint x="-30" y="-70" as="targetPoint" />
            <Array as="points">
              <mxPoint x="-35" y="-40" />
              <mxPoint x="-170" y="-40" />
              <mxPoint x="-320" y="-40" />
            </Array>
          </mxGeometry>
        </mxCell>
        <mxCell id="_O6t_xjoy0FSQac_qxvD-2" value="" style="endArrow=block;html=1;rounded=0;exitX=0.5;exitY=0;exitDx=0;exitDy=0;entryX=0.5;entryY=0;entryDx=0;entryDy=0;endFill=0;" parent="1" source="NJUDxgSn0hPsQpwS32hY-129" target="uhIot2lVFOxbi4M5OTPC-14" edge="1">
          <mxGeometry width="50" height="50" relative="1" as="geometry">
            <mxPoint x="-25" y="60" as="sourcePoint" />
            <mxPoint x="-310" y="60" as="targetPoint" />
            <Array as="points">
              <mxPoint x="-160" y="-30" />
              <mxPoint x="-320" y="-30" />
            </Array>
          </mxGeometry>
        </mxCell>
        <mxCell id="zEczjbBAXWdBSmOIvRBL-3" style="edgeStyle=orthogonalEdgeStyle;rounded=0;orthogonalLoop=1;jettySize=auto;html=1;exitX=0.25;exitY=0;exitDx=0;exitDy=0;endArrow=none;endFill=0;entryX=0.079;entryY=1.026;entryDx=0;entryDy=0;entryPerimeter=0;" parent="1" source="zEczjbBAXWdBSmOIvRBL-1" target="T-uDaYiKx6lu9DH5wLxZ-16" edge="1">
          <mxGeometry relative="1" as="geometry">
            <mxPoint x="1010" y="-260" as="targetPoint" />
            <Array as="points">
              <mxPoint x="1080" y="-180" />
              <mxPoint x="1017" y="-180" />
            </Array>
          </mxGeometry>
        </mxCell>
        <mxCell id="zEczjbBAXWdBSmOIvRBL-1" value="Organizzatore" style="swimlane;fontStyle=0;childLayout=stackLayout;horizontal=1;startSize=26;horizontalStack=0;resizeParent=1;resizeParentMax=0;resizeLast=0;collapsible=1;marginBottom=0;labelBackgroundColor=none;" parent="1" vertex="1">
          <mxGeometry x="1045" y="-156.75" width="140" height="70" as="geometry" />
        </mxCell>
        <mxCell id="zEczjbBAXWdBSmOIvRBL-4" value="1" style="text;html=1;align=center;verticalAlign=middle;resizable=0;points=[];autosize=1;strokeColor=none;fillColor=none;" parent="1" vertex="1">
          <mxGeometry x="1050" y="-183.5" width="30" height="30" as="geometry" />
        </mxCell>
        <mxCell id="zEczjbBAXWdBSmOIvRBL-5" value="0..n" style="text;html=1;align=center;verticalAlign=middle;resizable=0;points=[];autosize=1;strokeColor=none;fillColor=none;" parent="1" vertex="1">
          <mxGeometry x="985" y="-236" width="40" height="30" as="geometry" />
        </mxCell>
        <mxCell id="zEczjbBAXWdBSmOIvRBL-6" value="gestisce&amp;nbsp;▲" style="text;html=1;align=center;verticalAlign=middle;resizable=0;points=[];autosize=1;strokeColor=none;fillColor=none;" parent="1" vertex="1">
          <mxGeometry x="1020" y="-206.5" width="80" height="30" as="geometry" />
        </mxCell>
        <mxCell id="zEczjbBAXWdBSmOIvRBL-8" value="lo stato può essere:&lt;br&gt;0-&amp;gt; in programma&lt;br&gt;1-&amp;gt; in corso&lt;br&gt;2-&amp;gt; terminato&lt;br&gt;3-&amp;gt; annullato&lt;br&gt;4-&amp;gt; eliminato" style="text;html=1;align=center;verticalAlign=middle;resizable=0;points=[];autosize=1;strokeColor=#d6b656;fillColor=#fff2cc;" parent="1" vertex="1">
          <mxGeometry x="839.74" y="-450.5" width="130" height="100" as="geometry" />
        </mxCell>
        <mxCell id="zEczjbBAXWdBSmOIvRBL-9" value="" style="endArrow=none;dashed=1;html=1;rounded=0;entryX=0;entryY=0;entryDx=0;entryDy=0;" parent="1" source="zEczjbBAXWdBSmOIvRBL-8" target="T-uDaYiKx6lu9DH5wLxZ-15" edge="1">
          <mxGeometry width="50" height="50" relative="1" as="geometry">
            <mxPoint x="920" y="-250" as="sourcePoint" />
            <mxPoint x="970" y="-300" as="targetPoint" />
          </mxGeometry>
        </mxCell>
        <mxCell id="zEczjbBAXWdBSmOIvRBL-10" value="lo stato può essere:&lt;br&gt;0-&amp;gt;programmato&lt;br&gt;1-&amp;gt; in esecuzione&lt;br&gt;2-&amp;gt;terminato&lt;br&gt;3-&amp;gt; eliminato" style="text;html=1;align=center;verticalAlign=middle;resizable=0;points=[];autosize=1;strokeColor=#d6b656;fillColor=#fff2cc;" parent="1" vertex="1">
          <mxGeometry x="560" y="-488" width="130" height="90" as="geometry" />
        </mxCell>
        <mxCell id="7VUklRRNdE1YqKIWgDo--12" value="contiene&amp;nbsp;&amp;nbsp;▲" style="text;html=1;align=center;verticalAlign=middle;resizable=0;points=[];autosize=1;strokeColor=none;fillColor=none;" parent="1" vertex="1">
          <mxGeometry x="395" y="398" width="90" height="30" as="geometry" />
        </mxCell>
        <mxCell id="zNEtv6UZ-EI0qYN3UBXO-35" value="README&lt;br&gt;modificare i contratti riguardanti gli eventi, è stato aggiunto il&#39;approvazione e&lt;br&gt;&amp;nbsp;la modificas del menu, riguardare tutti i numeri successi al 5.&lt;br&gt;&lt;br&gt;attenzione!!!&lt;br&gt;qunado nei contratti si parla di argomenti che legano due entità, non bisogna dire compito.cuoco = cuoco ma &lt;br&gt;compito è svolto da cuoco, (dove è svolto è la relazione che li lega)&lt;br&gt;&lt;br&gt;guarda se serve aggiungere due tipi di turni uno per il servizio e per i cuochi&lt;br&gt;" style="text;html=1;align=center;verticalAlign=middle;resizable=0;points=[];autosize=1;strokeColor=#82b366;fillColor=#d5e8d4;" parent="1" vertex="1">
          <mxGeometry x="-100" y="-584" width="600" height="140" as="geometry" />
        </mxCell>
        <mxCell id="zNEtv6UZ-EI0qYN3UBXO-38" style="edgeStyle=orthogonalEdgeStyle;rounded=0;orthogonalLoop=1;jettySize=auto;html=1;exitX=0.5;exitY=0;exitDx=0;exitDy=0;endArrow=none;endFill=0;entryX=0.5;entryY=1;entryDx=0;entryDy=0;" parent="1" source="zNEtv6UZ-EI0qYN3UBXO-37" target="zEczjbBAXWdBSmOIvRBL-1" edge="1">
          <mxGeometry relative="1" as="geometry">
            <mxPoint x="1390" y="-250" as="targetPoint" />
            <Array as="points">
              <mxPoint x="1115" y="-50" />
              <mxPoint x="1115" y="-50" />
            </Array>
          </mxGeometry>
        </mxCell>
        <mxCell id="zNEtv6UZ-EI0qYN3UBXO-39" style="edgeStyle=orthogonalEdgeStyle;rounded=0;orthogonalLoop=1;jettySize=auto;html=1;exitX=0;exitY=0.5;exitDx=0;exitDy=0;entryX=0.75;entryY=1;entryDx=0;entryDy=0;endArrow=none;endFill=0;" parent="1" source="zNEtv6UZ-EI0qYN3UBXO-37" target="T-uDaYiKx6lu9DH5wLxZ-50" edge="1">
          <mxGeometry relative="1" as="geometry">
            <Array as="points">
              <mxPoint x="1000" y="8" />
              <mxPoint x="1000" y="-160" />
              <mxPoint x="940" y="-160" />
              <mxPoint x="940" y="-220" />
              <mxPoint x="755" y="-220" />
            </Array>
          </mxGeometry>
        </mxCell>
        <mxCell id="zNEtv6UZ-EI0qYN3UBXO-37" value="Proposta di Modifica" style="swimlane;fontStyle=0;childLayout=stackLayout;horizontal=1;startSize=26;horizontalStack=0;resizeParent=1;resizeParentMax=0;resizeLast=0;collapsible=1;marginBottom=0;labelBackgroundColor=none;" parent="1" vertex="1">
          <mxGeometry x="1045" y="-20" width="140" height="56" as="geometry" />
        </mxCell>
        <mxCell id="ISJEIcsu-FmmJELrljoc-5" value="proposta: testo" style="text;html=1;align=left;verticalAlign=middle;resizable=0;points=[];autosize=1;strokeColor=none;fillColor=none;" parent="zNEtv6UZ-EI0qYN3UBXO-37" vertex="1">
          <mxGeometry y="26" width="140" height="30" as="geometry" />
        </mxCell>
        <mxCell id="zNEtv6UZ-EI0qYN3UBXO-41" value="0..n" style="text;html=1;align=center;verticalAlign=middle;resizable=0;points=[];autosize=1;strokeColor=none;fillColor=none;" parent="1" vertex="1">
          <mxGeometry x="1005" y="10" width="40" height="30" as="geometry" />
        </mxCell>
        <mxCell id="zNEtv6UZ-EI0qYN3UBXO-42" value="1" style="text;html=1;align=center;verticalAlign=middle;resizable=0;points=[];autosize=1;strokeColor=none;fillColor=none;" parent="1" vertex="1">
          <mxGeometry x="720" y="-236.5" width="30" height="30" as="geometry" />
        </mxCell>
        <mxCell id="zNEtv6UZ-EI0qYN3UBXO-43" value="modifica&amp;nbsp;▲" style="text;html=1;align=center;verticalAlign=middle;resizable=0;points=[];autosize=1;strokeColor=none;fillColor=none;" parent="1" vertex="1">
          <mxGeometry x="820" y="-220" width="80" height="30" as="geometry" />
        </mxCell>
        <mxCell id="zNEtv6UZ-EI0qYN3UBXO-45" value="propone&amp;nbsp;▼" style="text;html=1;align=center;verticalAlign=middle;resizable=0;points=[];autosize=1;strokeColor=none;fillColor=none;" parent="1" vertex="1">
          <mxGeometry x="1110" y="-70" width="80" height="30" as="geometry" />
        </mxCell>
        <mxCell id="zNEtv6UZ-EI0qYN3UBXO-46" value="0..n" style="text;html=1;align=center;verticalAlign=middle;resizable=0;points=[];autosize=1;strokeColor=none;fillColor=none;" parent="1" vertex="1">
          <mxGeometry x="1075" y="-40" width="40" height="30" as="geometry" />
        </mxCell>
        <mxCell id="zNEtv6UZ-EI0qYN3UBXO-47" value="1" style="text;html=1;align=center;verticalAlign=middle;resizable=0;points=[];autosize=1;strokeColor=none;fillColor=none;" parent="1" vertex="1">
          <mxGeometry x="1080" y="-90" width="30" height="30" as="geometry" />
        </mxCell>
        <mxCell id="ISJEIcsu-FmmJELrljoc-7" value="" style="endArrow=none;html=1;rounded=0;exitX=0.5;exitY=1;exitDx=0;exitDy=0;entryX=0.25;entryY=0;entryDx=0;entryDy=0;" parent="1" source="uhIot2lVFOxbi4M5OTPC-14" target="Y_MUoPn_G3-hdeMt0CoU-2" edge="1">
          <mxGeometry width="50" height="50" relative="1" as="geometry">
            <mxPoint x="60" y="70" as="sourcePoint" />
            <mxPoint x="150" y="390" as="targetPoint" />
            <Array as="points">
              <mxPoint x="-320" y="210" />
              <mxPoint x="635" y="210" />
            </Array>
          </mxGeometry>
        </mxCell>
        <mxCell id="ISJEIcsu-FmmJELrljoc-8" value="&lt;font color=&quot;#000000&quot;&gt;è disponibile&amp;nbsp;&lt;span style=&quot;font-family: arial, sans-serif; font-size: 16px; text-align: left;&quot;&gt;▶&lt;/span&gt;&lt;/font&gt;" style="resizable=0;html=1;align=right;verticalAlign=bottom;labelBackgroundColor=none;fontColor=#0000FF;strokeColor=#0000FF;" parent="1" connectable="0" vertex="1">
          <mxGeometry x="109.99987396761162" y="209.99999518323648" as="geometry" />
        </mxCell>
        <mxCell id="ISJEIcsu-FmmJELrljoc-9" value="0..n" style="resizable=0;html=1;align=right;verticalAlign=top;labelBackgroundColor=none;" parent="1" connectable="0" vertex="1">
          <mxGeometry x="-289.9954344627521" y="130.4501972794733" as="geometry" />
        </mxCell>
        <mxCell id="ISJEIcsu-FmmJELrljoc-10" value="0..n" style="resizable=0;html=1;align=right;verticalAlign=top;labelBackgroundColor=none;" parent="1" connectable="0" vertex="1">
          <mxGeometry x="625" y="259.99620689655194" as="geometry" />
        </mxCell>
        <mxCell id="Y_MUoPn_G3-hdeMt0CoU-6" style="edgeStyle=orthogonalEdgeStyle;rounded=0;orthogonalLoop=1;jettySize=auto;html=1;exitX=0.416;exitY=1.009;exitDx=0;exitDy=0;entryX=0.75;entryY=0;entryDx=0;entryDy=0;exitPerimeter=0;endArrow=none;endFill=0;" parent="1" source="Y_MUoPn_G3-hdeMt0CoU-3" target="v4zvz2262ah-m5e5Bur2-20" edge="1">
          <mxGeometry relative="1" as="geometry" />
        </mxCell>
        <mxCell id="Y_MUoPn_G3-hdeMt0CoU-2" value="turno di servizio" style="swimlane;fontStyle=0;childLayout=stackLayout;horizontal=1;startSize=26;horizontalStack=0;resizeParent=1;resizeParentMax=0;resizeLast=0;collapsible=1;marginBottom=0;labelBackgroundColor=none;" parent="1" vertex="1">
          <mxGeometry x="585.0000000000002" y="290.45" width="200" height="70" as="geometry" />
        </mxCell>
        <mxCell id="Y_MUoPn_G3-hdeMt0CoU-3" value="giorno: Data&#xa;orario: range ore" style="text;strokeColor=none;fillColor=none;align=left;verticalAlign=top;spacingLeft=4;spacingRight=4;overflow=hidden;rotatable=0;points=[[0,0.5],[1,0.5]];portConstraint=eastwest;labelBackgroundColor=none;fontColor=#000000;" parent="Y_MUoPn_G3-hdeMt0CoU-2" vertex="1">
          <mxGeometry y="26" width="200" height="44" as="geometry" />
        </mxCell>
        <mxCell id="Y_MUoPn_G3-hdeMt0CoU-4" value="turno" style="swimlane;fontStyle=0;childLayout=stackLayout;horizontal=1;startSize=26;horizontalStack=0;resizeParent=1;resizeParentMax=0;resizeLast=0;collapsible=1;marginBottom=0;labelBackgroundColor=none;" parent="1" vertex="1">
          <mxGeometry x="375.0000000000002" y="60.45" width="200" height="80" as="geometry" />
        </mxCell>
        <mxCell id="Y_MUoPn_G3-hdeMt0CoU-5" value="giorno: Data&#xa;orario: range ore&#xa;saturo: si/no" style="text;strokeColor=none;fillColor=none;align=left;verticalAlign=top;spacingLeft=4;spacingRight=4;overflow=hidden;rotatable=0;points=[[0,0.5],[1,0.5]];portConstraint=eastwest;labelBackgroundColor=none;fontColor=#000000;" parent="Y_MUoPn_G3-hdeMt0CoU-4" vertex="1">
          <mxGeometry y="26" width="200" height="54" as="geometry" />
        </mxCell>
        <mxCell id="Y_MUoPn_G3-hdeMt0CoU-7" style="edgeStyle=orthogonalEdgeStyle;rounded=0;orthogonalLoop=1;jettySize=auto;html=1;exitX=0.531;exitY=1.025;exitDx=0;exitDy=0;entryX=0.25;entryY=0;entryDx=0;entryDy=0;exitPerimeter=0;endArrow=none;endFill=0;" parent="1" source="T-uDaYiKx6lu9DH5wLxZ-68" target="v4zvz2262ah-m5e5Bur2-20" edge="1">
          <mxGeometry relative="1" as="geometry">
            <mxPoint x="678" y="371" as="sourcePoint" />
            <mxPoint x="590" y="490" as="targetPoint" />
            <Array as="points">
              <mxPoint x="390" y="367" />
              <mxPoint x="390" y="423" />
              <mxPoint x="480" y="423" />
            </Array>
          </mxGeometry>
        </mxCell>
        <mxCell id="Y_MUoPn_G3-hdeMt0CoU-8" value="1" style="resizable=0;html=1;align=right;verticalAlign=top;labelBackgroundColor=none;" parent="1" connectable="0" vertex="1">
          <mxGeometry x="482.5" y="459.9962068965519" as="geometry">
            <mxPoint x="113" y="-2" as="offset" />
          </mxGeometry>
        </mxCell>
        <mxCell id="Y_MUoPn_G3-hdeMt0CoU-9" value="0..n" style="resizable=0;html=1;align=left;verticalAlign=top;labelBackgroundColor=none;" parent="1" connectable="0" vertex="1">
          <mxGeometry x="640" y="360.45" as="geometry" />
        </mxCell>
        <mxCell id="Y_MUoPn_G3-hdeMt0CoU-13" style="edgeStyle=orthogonalEdgeStyle;rounded=0;orthogonalLoop=1;jettySize=auto;html=1;exitX=0.5;exitY=0;exitDx=0;exitDy=0;endArrow=none;endFill=0;" parent="1" source="Y_MUoPn_G3-hdeMt0CoU-2" edge="1">
          <mxGeometry relative="1" as="geometry">
            <mxPoint x="400" y="305" as="sourcePoint" />
            <mxPoint x="470" y="150" as="targetPoint" />
            <Array as="points">
              <mxPoint x="685" y="190" />
              <mxPoint x="475" y="190" />
              <mxPoint x="475" y="150" />
            </Array>
          </mxGeometry>
        </mxCell>
        <mxCell id="Y_MUoPn_G3-hdeMt0CoU-14" value="contiene ▲" style="text;html=1;align=center;verticalAlign=middle;resizable=0;points=[];autosize=1;strokeColor=none;fillColor=none;" parent="1" vertex="1">
          <mxGeometry x="580" y="390" width="80" height="30" as="geometry" />
        </mxCell>
        <mxCell id="Y_MUoPn_G3-hdeMt0CoU-23" style="edgeStyle=orthogonalEdgeStyle;rounded=0;orthogonalLoop=1;jettySize=auto;html=1;exitX=0.25;exitY=0;exitDx=0;exitDy=0;entryX=0.25;entryY=1;entryDx=0;entryDy=0;endArrow=none;endFill=0;" parent="1" source="Y_MUoPn_G3-hdeMt0CoU-21" target="T-uDaYiKx6lu9DH5wLxZ-50" edge="1">
          <mxGeometry relative="1" as="geometry">
            <Array as="points">
              <mxPoint x="880" y="-150" />
              <mxPoint x="685" y="-150" />
            </Array>
          </mxGeometry>
        </mxCell>
        <mxCell id="Y_MUoPn_G3-hdeMt0CoU-24" style="edgeStyle=orthogonalEdgeStyle;rounded=0;orthogonalLoop=1;jettySize=auto;html=1;exitX=0.75;exitY=0;exitDx=0;exitDy=0;endArrow=none;endFill=0;" parent="1" source="Y_MUoPn_G3-hdeMt0CoU-21" target="T-uDaYiKx6lu9DH5wLxZ-15" edge="1">
          <mxGeometry relative="1" as="geometry">
            <Array as="points">
              <mxPoint x="950" y="-340" />
            </Array>
          </mxGeometry>
        </mxCell>
        <mxCell id="Y_MUoPn_G3-hdeMt0CoU-21" value="nota" style="swimlane;fontStyle=0;childLayout=stackLayout;horizontal=1;startSize=26;horizontalStack=0;resizeParent=1;resizeParentMax=0;resizeLast=0;collapsible=1;marginBottom=0;labelBackgroundColor=none;" parent="1" vertex="1">
          <mxGeometry x="845" y="-90" width="140" height="50" as="geometry" />
        </mxCell>
        <mxCell id="Y_MUoPn_G3-hdeMt0CoU-22" value="+ descrizione : testo" style="text;strokeColor=none;fillColor=none;align=left;verticalAlign=top;spacingLeft=4;spacingRight=4;overflow=hidden;rotatable=0;points=[[0,0.5],[1,0.5]];portConstraint=eastwest;labelBackgroundColor=none;fontColor=#000000;" parent="Y_MUoPn_G3-hdeMt0CoU-21" vertex="1">
          <mxGeometry y="26" width="140" height="24" as="geometry" />
        </mxCell>
        <mxCell id="Y_MUoPn_G3-hdeMt0CoU-25" value="relativa a ▲" style="text;html=1;align=center;verticalAlign=middle;resizable=0;points=[];autosize=1;strokeColor=none;fillColor=none;" parent="1" vertex="1">
          <mxGeometry x="800" y="-156.75" width="90" height="30" as="geometry" />
        </mxCell>
        <mxCell id="Y_MUoPn_G3-hdeMt0CoU-27" value="relativa a ▲" style="text;html=1;align=center;verticalAlign=middle;resizable=0;points=[];autosize=1;strokeColor=none;fillColor=none;" parent="1" vertex="1">
          <mxGeometry x="885" y="-156.75" width="90" height="30" as="geometry" />
        </mxCell>
        <mxCell id="Y_MUoPn_G3-hdeMt0CoU-28" value="0..n" style="text;html=1;align=center;verticalAlign=middle;resizable=0;points=[];autosize=1;strokeColor=none;fillColor=none;" parent="1" vertex="1">
          <mxGeometry x="915" y="-132" width="40" height="30" as="geometry" />
        </mxCell>
        <mxCell id="Y_MUoPn_G3-hdeMt0CoU-29" value="0..n" style="text;html=1;align=center;verticalAlign=middle;resizable=0;points=[];autosize=1;strokeColor=none;fillColor=none;" parent="1" vertex="1">
          <mxGeometry x="840" y="-132" width="40" height="30" as="geometry" />
        </mxCell>
        <mxCell id="Y_MUoPn_G3-hdeMt0CoU-30" value="1" style="text;html=1;align=center;verticalAlign=middle;resizable=0;points=[];autosize=1;strokeColor=none;fillColor=none;" parent="1" vertex="1">
          <mxGeometry x="970" y="-364" width="30" height="30" as="geometry" />
        </mxCell>
        <mxCell id="Y_MUoPn_G3-hdeMt0CoU-31" value="1" style="text;html=1;align=center;verticalAlign=middle;resizable=0;points=[];autosize=1;strokeColor=none;fillColor=none;" parent="1" vertex="1">
          <mxGeometry x="660" y="-236.5" width="30" height="30" as="geometry" />
        </mxCell>
        <mxCell id="Y_MUoPn_G3-hdeMt0CoU-37" value="si effettua ▶" style="text;whiteSpace=wrap;html=1;" parent="1" vertex="1">
          <mxGeometry x="-486.26" y="-123.49999999999999" width="80" height="27" as="geometry" />
        </mxCell>
        <mxCell id="Y_MUoPn_G3-hdeMt0CoU-38" value="0..n" style="resizable=0;html=1;align=left;verticalAlign=top;labelBackgroundColor=none;" parent="1" connectable="0" vertex="1">
          <mxGeometry x="-290" y="-316" as="geometry" />
        </mxCell>
        <mxCell id="Y_MUoPn_G3-hdeMt0CoU-39" value="1" style="resizable=0;html=1;align=right;verticalAlign=top;labelBackgroundColor=none;" parent="1" connectable="0" vertex="1">
          <mxGeometry x="760" y="360.4462068965519" as="geometry" />
        </mxCell>
        <mxCell id="Y_MUoPn_G3-hdeMt0CoU-40" value="la stessa nota non può&lt;br&gt;essere relativa sia a servizio&lt;br&gt;che a evento" style="text;html=1;align=center;verticalAlign=middle;resizable=0;points=[];autosize=1;strokeColor=#d6b656;fillColor=#fff2cc;" parent="1" vertex="1">
          <mxGeometry x="835" y="28.489999999999988" width="170" height="60" as="geometry" />
        </mxCell>
        <mxCell id="Y_MUoPn_G3-hdeMt0CoU-41" value="" style="endArrow=none;dashed=1;html=1;dashPattern=1 3;strokeWidth=2;rounded=0;entryX=0.528;entryY=1.007;entryDx=0;entryDy=0;entryPerimeter=0;" parent="1" source="Y_MUoPn_G3-hdeMt0CoU-40" target="Y_MUoPn_G3-hdeMt0CoU-22" edge="1">
          <mxGeometry width="50" height="50" relative="1" as="geometry">
            <mxPoint x="780" y="-60" as="sourcePoint" />
            <mxPoint x="830" y="-110" as="targetPoint" />
          </mxGeometry>
        </mxCell>
        <mxCell id="qgJG2-PVkp0Q0F3bQJYU-1" value="" style="endArrow=none;dashed=1;html=1;rounded=0;exitX=0.664;exitY=1.011;exitDx=0;exitDy=0;exitPerimeter=0;entryX=0.101;entryY=-0.009;entryDx=0;entryDy=0;entryPerimeter=0;" parent="1" source="zEczjbBAXWdBSmOIvRBL-10" target="T-uDaYiKx6lu9DH5wLxZ-50" edge="1">
          <mxGeometry width="50" height="50" relative="1" as="geometry">
            <mxPoint x="980" y="-365" as="sourcePoint" />
            <mxPoint x="670" y="-351" as="targetPoint" />
          </mxGeometry>
        </mxCell>
        <mxCell id="qgJG2-PVkp0Q0F3bQJYU-5" value="◄ /serve per" style="text;html=1;align=center;verticalAlign=middle;resizable=0;points=[];autosize=1;strokeColor=none;fillColor=none;" parent="1" vertex="1">
          <mxGeometry x="1375" y="-100" width="90" height="30" as="geometry" />
        </mxCell>
        <mxCell id="qgJG2-PVkp0Q0F3bQJYU-6" value="0..n" style="text;html=1;align=center;verticalAlign=middle;resizable=0;points=[];autosize=1;strokeColor=none;fillColor=none;" parent="1" vertex="1">
          <mxGeometry x="1140" y="-458" width="40" height="30" as="geometry" />
        </mxCell>
        <mxCell id="qgJG2-PVkp0Q0F3bQJYU-7" value="1" style="text;html=1;align=center;verticalAlign=middle;resizable=0;points=[];autosize=1;strokeColor=none;fillColor=none;" parent="1" vertex="1">
          <mxGeometry x="1520" y="-96.5" width="30" height="30" as="geometry" />
        </mxCell>
      </root>
    </mxGraphModel>
  </diagram>
</mxfile>
